<svg xmlns="http://www.w3.org/2000/svg" xmlns:xlink="http://www.w3.org/1999/xlink" width="435.31" height="54.747" viewBox="0 0 115.18 14.485"><defs><marker id="a" orient="auto" overflow="visible"><path fill="#00878f" fill-rule="evenodd" stroke="#00878f" stroke-linejoin="round" stroke-width=".375" d="M-5.231-2.42 1.324-.01-5.23 2.401c1.047-1.423 1.041-3.37 0-4.821z"/></marker><marker id="b" orient="auto" overflow="visible"><path fill="#e47128" fill-rule="evenodd" stroke="#e47128" stroke-linejoin="round" stroke-width=".375" d="M-5.231-2.42 1.324-.01-5.23 2.401c1.047-1.423 1.041-3.37 0-4.821z"/></marker></defs><rect width="41.57" height="13.985" x="38.123" y=".25" fill="#ddd" stroke="#000" stroke-width=".5" rx="1.228" ry="1.228"/><g fill="none" stroke-width=".5"><path stroke="#00878f" marker-end="url(#a)" d="M69.4 25.463h61.238" transform="translate(-40.949 -20.829)"/><path stroke="#e47128" marker-end="url(#b)" d="M130.4 30.68H69.071" transform="translate(-40.949 -20.829)"/></g><text x="-.262" y="8.924" fill="#777" stroke-width=".265" font-family="Consolas" font-size="8.467" font-weight="400" letter-spacing="0" style="line-height:125%" word-spacing="0"><tspan x="-.262" y="8.924" font-size="4.939">decorated</tspan></text><text x="93.778" y="8.454" fill="#777" stroke-width=".265" font-family="Consolas" font-size="8.467" font-weight="400" letter-spacing="0" style="line-height:125%" word-spacing="0"><tspan x="93.778" y="8.454" font-size="4.939">original</tspan></text><path id="c" fill="#e47128" d="M85.174 8.144h2.941v3.28h-2.941z"/><use xlink:href="#c" id="d" stroke-width=".817" transform="matrix(1.5 0 0 1 -48.291 0)"/><use xlink:href="#d" id="e" stroke-width="1.275" transform="matrix(.61538 0 0 1 26.368 0)"/><use xlink:href="#e" id="h" transform="translate(-4.233)"/><use xlink:href="#h" id="i" transform="translate(-4.233)"/><use xlink:href="#i" stroke-width=".322" transform="matrix(9.6699 0 0 1 -613.44 0)"/><path fill="none" stroke="#000" stroke-dasharray="1.00013, 0.500063" stroke-width=".5" d="M58.908 6.334v7.579"/><use xlink:href="#i" stroke-width=".73" transform="matrix(1.875 0 0 1 -64.418 0)"/></svg>