<svg xmlns="http://www.w3.org/2000/svg" width="435.307" height="54.747" viewBox="0 0 115.175 14.485"><defs><marker id="c" refX="0" refY="0" orient="auto" overflow="visible"><path d="M-5.231-2.42L1.324-.01-5.23 2.401c1.047-1.423 1.041-3.37 0-4.821z" fill="#e47128" fill-rule="evenodd" stroke="#e47128" stroke-width=".375" stroke-linejoin="round"/></marker><marker id="b" refX="0" refY="0" orient="auto" overflow="visible"><path d="M-5.231-2.42L1.324-.01-5.23 2.401c1.047-1.423 1.041-3.37 0-4.821z" fill="#00878f" fill-rule="evenodd" stroke="#00878f" stroke-width=".375" stroke-linejoin="round"/></marker><marker orient="auto" refY="0" refX="0" id="a" overflow="visible"><path d="M-5.231-2.42L1.324-.01-5.23 2.401c1.047-1.423 1.041-3.37 0-4.821z" fill="#00878f" fill-rule="evenodd" stroke="#00878f" stroke-width=".375" stroke-linejoin="round"/></marker></defs><rect width="41.57" height="13.985" x="38.123" y=".25" rx="1.228" ry="1.228" fill="#ddd" stroke="#000" stroke-width=".5"/><text style="line-height:125%;-inkscape-font-specification:Consolas;fill:#777" x="-.263" y="8.925" font-weight="400" font-size="8.467" font-family="Consolas" letter-spacing="0" word-spacing="0" stroke-width=".265"><tspan x="-.263" y="8.925" font-size="4.939">decorated</tspan></text><text style="line-height:125%;-inkscape-font-specification:Consolas;fill:#777" x="93.777" y="8.454" font-weight="400" font-size="8.467" font-family="Consolas" letter-spacing="0" word-spacing="0" stroke-width=".265"><tspan x="93.777" y="8.454" font-size="4.939">original</tspan></text><path d="M28.451 4.634h61.238" fill="none" stroke="#00878f" stroke-width=".5" marker-end="url(#a)"/><path d="M44.326 4.634c13.977.11 6.585-2.298 19.874-2.321 6.623-.012 16.862-.018 25.489-.017" fill="none" stroke="#00878f" stroke-width=".3" stroke-dasharray=".60000012,.30000006" marker-end="url(#b)"/><text y="3.999" x="60.709" style="line-height:125%;-inkscape-font-specification:Consolas" font-weight="400" font-size="3.52" font-family="Consolas" letter-spacing="0" word-spacing="0" fill="#00878f" stroke-width=".11"><tspan y="3.999" x="60.709" font-size="2.053">parity bits</tspan></text><path d="M89.689 9.708H28.45" fill="none" stroke="#e47128" stroke-width=".5" marker-end="url(#c)"/><path d="M43.874 9.708c13.976-.11 6.585 2.298 19.874 2.322 6.623.011 17.253.017 25.88.016" fill="none" stroke="#e47128" stroke-width=".3" stroke-dasharray=".60007511,.30003755"/><text y="11.539" x="60.257" style="line-height:125%;-inkscape-font-specification:Consolas" font-weight="400" font-size="3.52" font-family="Consolas" letter-spacing="0" word-spacing="0" fill="#e47128" stroke-width=".11"><tspan y="11.539" x="60.257" font-size="2.053">parity bits</tspan></text></svg>