<svg xmlns="http://www.w3.org/2000/svg" width="435.307" height="54.747" viewBox="0 0 115.175 14.485"><defs><marker id="c" refX="0" refY="0" orient="auto" overflow="visible"><path d="M-5.231-2.42L1.324-.01-5.23 2.401c1.047-1.423 1.041-3.37 0-4.821z" fill="#00878f" fill-rule="evenodd" stroke="#00878f" stroke-width=".375" stroke-linejoin="round"/></marker><marker orient="auto" refY="0" refX="0" id="b" overflow="visible"><path d="M-5.231-2.42L1.324-.01-5.23 2.401c1.047-1.423 1.041-3.37 0-4.821z" fill="#e47128" fill-rule="evenodd" stroke="#e47128" stroke-width=".375" stroke-linejoin="round"/></marker><marker orient="auto" refY="0" refX="0" id="a" overflow="visible"><path d="M-5.231-2.42L1.324-.01-5.23 2.401c1.047-1.423 1.041-3.37 0-4.821z" fill="#00878f" fill-rule="evenodd" stroke="#00878f" stroke-width=".375" stroke-linejoin="round"/></marker></defs><g transform="translate(98.669 59.515)"><rect ry="1.228" rx="1.228" y="-59.265" x="-60.546" height="13.985" width="41.57" fill="#ddd" stroke="#000" stroke-width=".5"/><path d="M-70.218-54.88H-8.98" fill="none" stroke="#00878f" stroke-width=".5" marker-end="url(#a)"/><path d="M-9.213-49.664h-61.33" fill="none" stroke="#e47128" stroke-width=".5" marker-end="url(#b)"/><text y="-50.59" x="-98.932" style="line-height:125%;-inkscape-font-specification:Consolas;fill:#777" font-weight="400" font-size="8.467" font-family="Consolas" letter-spacing="0" word-spacing="0" stroke-width=".265"><tspan y="-50.59" x="-98.932" font-size="4.939">decorated</tspan></text><text y="-51.061" x="-4.892" style="line-height:125%;-inkscape-font-specification:Consolas;fill:#777" font-weight="400" font-size="8.467" font-family="Consolas" letter-spacing="0" word-spacing="0" stroke-width=".265"><tspan y="-51.061" x="-4.892" font-size="4.939">original</tspan></text><path d="M-54.343-54.88c13.977.108 6.585-2.299 19.874-2.322 6.623-.012 16.862-.018 25.489-.017" fill="none" stroke="#00878f" stroke-width=".3" stroke-dasharray=".60000012,.30000006" marker-end="url(#c)"/><text y="-55.516" x="-37.96" style="line-height:125%;-inkscape-font-specification:Consolas" font-weight="400" font-size="3.52" font-family="Consolas" letter-spacing="0" word-spacing="0" fill="#00878f" stroke-width=".11"><tspan y="-55.516" x="-37.96" font-size="2.053">parity bits</tspan></text></g></svg>