<svg xmlns="http://www.w3.org/2000/svg" width="435.307" height="54.747" viewBox="0 0 115.175 14.485"><defs><marker orient="auto" refY="0" refX="0" id="a" overflow="visible"><path d="M-5.231-2.42L1.324-.01-5.23 2.401c1.047-1.423 1.041-3.37 0-4.821z" fill="#00878f" fill-rule="evenodd" stroke="#00878f" stroke-width=".375" stroke-linejoin="round"/></marker><marker orient="auto" refY="0" refX="0" id="b" overflow="visible"><path d="M-5.231-2.42L1.324-.01-5.23 2.401c1.047-1.423 1.041-3.37 0-4.821z" fill="#e47128" fill-rule="evenodd" stroke="#e47128" stroke-width=".375" stroke-linejoin="round"/></marker></defs><g transform="translate(-39.95 -20.829)"><rect width="41.57" height="13.985" x="78.073" y="21.079" rx="1.228" ry="1.228" fill="#ddd" stroke="#000" stroke-width=".5"/><g fill="none" stroke-width=".5"><path d="M69.4 25.463h61.238" stroke="#00878f" marker-end="url(#a)" transform="translate(-.999)"/><path d="M130.405 30.68H69.076" stroke="#e47128" marker-end="url(#b)" transform="translate(-.999)"/></g><text style="line-height:125%;-inkscape-font-specification:Consolas;fill:#777" x="39.688" y="29.753" font-weight="400" font-size="8.467" font-family="Consolas" letter-spacing="0" word-spacing="0" stroke-width=".265"><tspan x="39.688" y="29.753" font-size="4.939">decorated</tspan></text><text style="line-height:125%;-inkscape-font-specification:Consolas;fill:#777" x="133.728" y="29.283" font-weight="400" font-size="8.467" font-family="Consolas" letter-spacing="0" word-spacing="0" stroke-width=".265"><tspan x="133.728" y="29.283" font-size="4.939">original</tspan></text></g><g transform="translate(-39.95 -45.962)"><rect ry=".483" rx=".483" y="53.317" x="87.265" height="4.944" width="23.186" fill="#fff" stroke="#e47128" stroke-width=".5"/><text y="57.228" x="91.548" style="line-height:125%;-inkscape-font-specification:Consolas" font-weight="400" font-size="4.386" font-family="Consolas" letter-spacing="0" word-spacing="0" stroke-width=".265"><tspan y="57.228" x="91.548">buffer</tspan></text></g></svg>