<svg xmlns="http://www.w3.org/2000/svg" xmlns:xlink="http://www.w3.org/1999/xlink" width="435.307" height="81.808" viewBox="0 0 115.175 21.645"><defs><marker orient="auto" refY="0" refX="0" id="c" overflow="visible"><path d="M-5.231-2.42L1.324-.01-5.23 2.401c1.047-1.423 1.041-3.37 0-4.821z" fill="#848484" fill-rule="evenodd" stroke="#848484" stroke-width=".375" stroke-linejoin="round"/></marker><marker id="a" refX="0" refY="0" orient="auto" overflow="visible"><path d="M-5.231-2.42L1.324-.01-5.23 2.401c1.047-1.423 1.041-3.37 0-4.821z" fill="#e47128" fill-rule="evenodd" stroke="#e47128" stroke-width=".375" stroke-linejoin="round"/></marker><marker id="b" refX="0" refY="0" orient="auto" overflow="visible"><path d="M-5.231-2.42L1.324-.01-5.23 2.401c1.047-1.423 1.041-3.37 0-4.821z" fill="#00878f" fill-rule="evenodd" stroke="#00878f" stroke-width=".375" stroke-linejoin="round"/></marker></defs><g transform="translate(-39.95 -21.077)"><rect width="41.57" height="13.985" x="78.073" y="28.487" rx="1.228" ry="1.228" fill="#ddd" stroke="#000" stroke-width=".5"/><path d="M129.407 38.617h-61.33" fill="none" stroke="#e47128" stroke-width=".5" marker-end="url(#a)"/><text style="line-height:125%;-inkscape-font-specification:Consolas;fill:#777" x="39.688" y="37.691" font-weight="400" font-size="8.467" font-family="Consolas" letter-spacing="0" word-spacing="0" stroke-width=".265"><tspan x="39.688" y="37.691" font-size="4.939">decorated</tspan></text><text style="line-height:125%;-inkscape-font-specification:Consolas;fill:#777" x="133.728" y="37.221" font-weight="400" font-size="8.467" font-family="Consolas" letter-spacing="0" word-spacing="0" stroke-width=".265"><tspan x="133.728" y="37.221" font-size="4.939">original</tspan></text><path d="M68.62 33.947H93.42c3.95 0 3.568-3.143 2.08-3.137-1.488.006-2.08 3.137 1.58 3.144l.254-.007c3.766-.096 3.368-3.125 1.88-3.119-1.49.006-1.88 3.12 1.541 3.12h.215c3.95 0 3.569-3.144 2.08-3.138-1.488.006-2.08 3.137 1.87 3.137h24.655" fill="none" stroke="#00878f" stroke-width=".5" marker-end="url(#b)"/><path d="M103.025 30.448v-5.364" id="d" fill="none" fill-rule="evenodd" stroke="#848484" stroke-width=".249" stroke-linecap="butt" stroke-linejoin="miter" stroke-miterlimit="4" stroke-dasharray=".24941605,.24941605" stroke-dashoffset="0" stroke-opacity="1" marker-end="url(#c)"/><text style="line-height:125%;-inkscape-font-specification:Consolas" x="93.793" y="23.561" font-weight="400" font-size="3.416" font-family="Consolas" letter-spacing="0" word-spacing="0" fill="#848484" stroke-width=".107"><tspan x="93.793" y="23.561">wait()</tspan></text><use x="0" y="0" xlink:href="#d" id="e" transform="translate(-3.807)" width="100%" height="100%"/><use xlink:href="#e" transform="translate(-3.808)" width="100%" height="100%"/></g></svg>