<svg xmlns="http://www.w3.org/2000/svg" width="435.307" height="83.337" viewBox="0 0 115.175 22.05"><defs><marker orient="auto" refY="0" refX="0" id="c" overflow="visible"><path d="M-5.231-2.42L1.324-.01-5.23 2.401c1.047-1.423 1.041-3.37 0-4.821z" fill="#00878f" fill-rule="evenodd" stroke="#00878f" stroke-width=".375" stroke-linejoin="round"/></marker><marker orient="auto" refY="0" refX="0" id="a" overflow="visible"><path d="M-5.231-2.42L1.324-.01-5.23 2.401c1.047-1.423 1.041-3.37 0-4.821z" fill="#00878f" fill-rule="evenodd" stroke="#00878f" stroke-width=".375" stroke-linejoin="round"/></marker><marker orient="auto" refY="0" refX="0" id="b" overflow="visible"><path d="M-5.231-2.42L1.324-.01-5.23 2.401c1.047-1.423 1.041-3.37 0-4.821z" fill="#e47128" fill-rule="evenodd" stroke="#e47128" stroke-width=".375" stroke-linejoin="round"/></marker></defs><g transform="translate(-39.95 -20.829)"><rect width="41.57" height="13.985" x="78.073" y="21.079" rx="1.228" ry="1.228" fill="#ddd" stroke="#000" stroke-width=".5"/><g fill="none" stroke-width=".5"><path d="M69.4 25.463h61.238" stroke="#00878f" marker-end="url(#a)" transform="translate(-.999)"/><path d="M130.405 30.68H69.076" stroke="#e47128" marker-end="url(#b)" transform="translate(-.999)"/></g><text style="line-height:125%;-inkscape-font-specification:Consolas;fill:#777" x="39.688" y="29.753" font-weight="400" font-size="8.467" font-family="Consolas" letter-spacing="0" word-spacing="0" stroke-width=".265"><tspan x="39.688" y="29.753" font-size="4.939">decorated</tspan></text><text style="line-height:125%;-inkscape-font-specification:Consolas;fill:#777" x="133.728" y="29.283" font-weight="400" font-size="8.467" font-family="Consolas" letter-spacing="0" word-spacing="0" stroke-width=".265"><tspan x="133.728" y="29.283" font-size="4.939">original</tspan></text></g><text y="128.607" x="100.101" style="line-height:125%;-inkscape-font-specification:Consolas;fill:#777" font-weight="400" font-size="8.467" font-family="Consolas" letter-spacing="0" word-spacing="0" stroke-width=".265" transform="translate(-45.222 -107.57)"><tspan y="128.607" x="100.101" font-size="4.939">log</tspan></text><path d="M87.442 112.147c12.353.036 14.565 7.643 15.367 12.769" fill="none" stroke="#00878f" stroke-width=".4" marker-end="url(#c)" transform="translate(-45.222 -107.57)"/></svg>